<?xml version="1.0" encoding="UTF-8"?>
<svg xmlns="http://www.w3.org/2000/svg" viewBox="0 0 3359.07 460.00" width="3359.07" height="460.00">
  <g transform="translate(38.00,38.00)"><g transform="translate(-370.00,-354.00)"><path d="M 388.2,356.1 C 386.6,356.7 385.8,356.8 383.7,358.0 C 381.5,359.2 381.5,359.2 379.6,360.8 C 377.7,362.3 377.7,362.4 376.2,364.3 C 374.7,366.3 374.7,366.3 373.6,368.6 C 372.5,370.8 372.6,370.8 371.9,373.2 C 371.2,375.6 371.2,375.6 370.8,378.1 C 370.5,380.5 370.5,380.5 370.3,383.0 C 370.1,385.5 370.2,385.5 370.1,388.0 C 370.0,390.5 370.1,390.5 370.0,393.0 C 370.0,395.5 370.0,395.5 370.0,398.0 C 370.0,400.5 370.0,400.5 370.0,403.0 C 370.0,405.5 370.0,405.5 370.0,408.0 C 370.0,410.5 370.0,410.5 370.0,413.0 C 370.0,415.5 370.0,415.5 370.0,418.0 C 370.0,420.5 370.0,420.5 370.0,423.0 C 370.0,425.5 370.0,425.5 370.0,428.0 C 370.0,430.5 370.0,430.5 370.0,433.0 C 370.0,435.5 370.0,435.5 370.0,438.0 C 370.0,440.5 370.0,440.5 370.0,443.0 C 370.0,445.5 370.0,445.5 370.0,448.0 C 370.0,450.5 370.0,450.5 370.0,453.0 C 370.0,455.5 370.0,455.5 370.0,458.0 C 370.0,460.5 370.0,460.5 370.0,463.0 C 370.0,465.5 370.0,465.5 370.0,468.0 C 370.0,470.5 370.0,470.5 370.0,473.0 C 370.0,475.5 370.0,475.5 370.0,478.0 C 370.0,480.5 370.0,480.5 370.0,483.0 C 370.0,485.5 370.0,485.5 370.0,488.0 C 370.0,490.5 370.0,490.5 370.0,493.0 C 370.0,495.5 370.0,495.5 370.0,498.0 C 370.0,500.5 370.0,500.5 370.0,503.0 C 370.0,505.5 370.0,505.5 370.0,508.0 C 370.0,510.5 370.0,510.5 370.0,513.0 C 370.0,515.5 370.0,515.5 370.0,518.0 C 370.0,520.5 370.0,520.5 370.0,523.0 C 370.0,525.5 370.0,525.5 370.0,528.0 C 370.0,530.5 370.0,530.5 370.0,533.0 C 370.0,535.5 370.0,535.5 370.0,538.0 C 370.0,540.5 370.0,540.5 370.0,543.0 C 370.0,545.5 370.0,545.5 370.0,548.0 C 370.0,550.5 370.0,550.5 370.0,553.0 C 370.0,555.5 370.0,555.5 370.0,558.0 C 370.0,560.5 370.0,560.5 370.0,563.0 C 370.0,565.5 370.0,565.5 370.0,568.0 C 370.0,570.5 370.0,570.5 370.0,573.0 C 370.0,575.5 370.0,575.5 370.0,578.0 C 370.0,580.5 370.0,580.5 370.0,583.0 C 370.0,585.5 370.0,585.5 370.0,588.0 C 370.0,590.5 370.0,590.5 370.0,593.0 C 370.0,595.5 370.0,595.5 370.0,598.0 C 370.0,600.5 370.0,600.5 370.0,603.0 C 370.0,605.5 370.0,605.5 370.0,608.0 C 370.0,610.5 370.0,610.5 370.0,613.0 C 370.0,615.5 370.0,615.5 370.0,618.0 C 370.0,620.5 370.0,620.5 370.0,623.0 C 370.0,625.5 370.0,625.5 370.0,628.0 C 370.0,630.5 370.0,630.5 370.0,633.0 C 370.0,635.5 370.0,635.5 370.0,638.0 C 370.0,640.5 370.0,640.5 370.0,643.0 C 370.0,645.5 370.0,645.5 370.0,648.0 C 370.0,650.5 370.0,650.5 370.0,653.0 C 370.0,655.5 370.0,655.5 370.0,658.0 C 370.0,660.5 370.0,660.5 370.0,663.0 C 370.0,665.5 370.0,665.5 370.0,668.0 C 370.0,670.5 370.0,670.5 370.0,673.0 C 370.0,675.5 370.0,675.5 370.0,678.0 C 370.0,680.5 370.0,680.5 370.0,683.0 C 370.0,685.5 370.0,685.5 370.0,688.0 C 370.0,690.5 370.0,690.5 370.0,693.0 C 370.0,695.5 370.0,695.5 370.0,698.0 C 370.0,700.5 370.0,700.5 370.1,703.0 C 370.1,705.5 370.1,705.5 370.3,708.0 C 370.4,710.5 370.4,710.5 370.7,713.0 C 371.0,715.4 371.0,715.5 371.6,717.9 C 372.2,720.3 372.1,720.3 373.1,722.6 C 374.1,724.9 374.1,724.9 375.5,727.0 C 376.9,729.0 377.0,729.1 378.8,730.7 C 380.6,732.4 380.6,732.5 382.8,733.7 C 384.9,735.0 385.0,734.9 387.3,735.7 C 389.6,736.6 389.7,736.5 392.1,737.0 C 394.5,737.4 394.5,737.4 397.0,737.6 C 399.5,737.8 399.5,737.8 402.0,737.8 C 404.5,737.9 404.5,737.9 407.0,737.8 C 409.5,737.7 409.5,737.8 412.0,737.5 C 414.4,737.3 414.4,737.3 416.8,736.8 C 419.2,736.3 419.3,736.3 421.5,735.4 C 423.8,734.5 423.8,734.5 425.9,733.2 C 427.9,731.8 427.9,731.8 429.6,730.1 C 431.3,728.3 431.3,728.2 432.5,726.1 C 433.8,724.0 433.8,724.0 434.6,721.7 C 435.5,719.4 435.4,719.3 435.9,716.9 C 436.4,714.5 436.3,714.5 436.6,712.0 C 436.8,709.5 436.8,709.5 436.9,707.0 C 437.0,704.5 436.9,704.5 437.0,702.0 C 437.0,699.5 437.0,699.5 437.0,697.0 C 437.0,694.5 437.0,694.5 437.0,692.0 C 437.0,689.5 437.0,689.5 437.0,687.0 C 437.0,684.5 437.0,684.5 437.0,682.0 C 437.0,679.5 437.0,679.5 437.0,677.0 C 437.0,674.5 437.0,674.5 437.0,672.0 C 437.0,669.5 437.0,669.5 437.0,667.0 C 437.0,664.5 437.0,664.5 437.0,662.0 C 437.0,659.5 437.0,659.5 437.0,657.0 C 437.0,654.5 437.0,654.5 437.0,652.0 C 437.0,649.5 437.0,649.5 437.0,647.0 C 437.0,644.5 437.0,644.5 437.0,642.0 C 437.0,639.5 437.0,639.5 437.1,637.0 C 437.1,634.6 437.1,634.5 437.2,632.1 C 437.4,629.7 437.3,629.7 437.7,627.5 C 438.0,625.2 438.0,625.1 438.7,623.2 C 439.4,621.3 439.4,621.2 440.5,619.7 C 441.7,618.1 441.7,618.1 443.3,617.1 C 444.9,616.0 445.0,616.1 447.0,615.4 C 449.0,614.8 449.1,614.9 451.4,614.6 C 453.6,614.2 453.7,614.3 456.1,614.2 C 458.5,614.1 458.6,614.1 461.0,614.0 C 463.5,614.0 463.5,614.0 466.0,614.0 C 468.5,614.0 468.5,614.0 471.0,614.0 C 473.5,614.0 473.5,614.0 476.0,614.0 C 478.5,614.0 478.5,614.0 481.0,614.0 C 483.5,614.0 483.5,614.0 486.0,614.0 C 488.5,614.0 488.5,614.0 491.0,614.0 C 493.5,614.0 493.5,614.0 496.0,614.0 C 498.5,614.0 498.5,614.0 501.0,614.0 C 503.5,614.0 503.5,614.0 506.0,614.0 C 508.5,614.0 508.5,614.0 511.0,614.0 C 513.5,614.0 513.5,614.0 516.0,614.0 C 518.5,614.0 518.5,614.0 521.0,614.0 C 523.5,614.0 523.5,614.0 526.0,614.0 C 528.5,614.0 528.5,614.0 531.0,614.0 C 533.5,614.0 533.5,614.0 536.0,614.0 C 538.5,614.0 538.5,614.0 541.0,614.0 C 543.5,614.0 543.5,614.0 546.0,613.9 C 548.5,613.9 548.5,613.9 551.0,613.8 C 553.5,613.7 553.5,613.7 556.0,613.5 C 558.5,613.3 558.5,613.3 561.0,613.0 C 563.5,612.7 563.5,612.7 566.0,612.3 C 568.5,611.9 568.5,611.9 571.0,611.3 C 573.5,610.7 573.5,610.7 576.0,610.0 C 578.5,609.3 578.5,609.3 581.0,608.5 C 583.5,607.7 583.5,607.7 586.0,606.7 C 588.5,605.7 588.5,605.7 591.0,604.6 C 593.5,603.6 593.5,603.6 596.0,602.3 C 598.5,601.1 598.5,601.1 601.0,599.7 C 603.5,598.4 603.5,598.4 606.0,596.9 C 608.5,595.3 608.5,595.3 611.0,593.6 C 613.5,591.9 613.5,591.9 615.9,590.1 C 618.4,588.2 618.4,588.2 620.9,586.2 C 623.3,584.1 623.3,584.1 625.6,581.9 C 628.0,579.7 628.0,579.7 630.2,577.4 C 632.5,575.1 632.5,575.1 634.6,572.7 C 636.7,570.3 636.7,570.3 638.6,567.9 C 640.6,565.5 640.6,565.4 642.3,563.0 C 644.1,560.5 644.1,560.5 645.7,558.0 C 647.3,555.5 647.3,555.5 648.8,553.0 C 650.3,550.5 650.3,550.5 651.6,548.0 C 652.9,545.5 652.9,545.5 654.1,543.0 C 655.3,540.5 655.3,540.5 656.4,538.0 C 657.4,535.5 657.4,535.5 658.4,533.0 C 659.4,530.5 659.4,530.5 660.2,528.0 C 661.1,525.5 661.1,525.5 661.8,523.0 C 662.6,520.5 662.6,520.5 663.2,518.0 C 663.8,515.5 663.8,515.5 664.4,513.0 C 664.9,510.5 664.9,510.5 665.3,508.0 C 665.8,505.5 665.7,505.5 666.1,503.0 C 666.5,500.5 666.5,500.5 666.7,498.0 C 667.0,495.5 667.0,495.5 667.2,493.0 C 667.4,490.5 667.4,490.5 667.5,488.0 C 667.5,485.5 667.5,485.5 667.5,483.0 C 667.5,480.5 667.5,480.5 667.4,478.0 C 667.3,475.5 667.2,475.5 667.0,473.0 C 666.8,470.5 666.8,470.5 666.5,468.0 C 666.2,465.5 666.2,465.5 665.8,463.0 C 665.4,460.5 665.5,460.5 665.0,458.0 C 664.5,455.5 664.5,455.5 663.9,453.0 C 663.3,450.5 663.3,450.5 662.7,448.0 C 662.0,445.5 662.0,445.5 661.2,443.0 C 660.4,440.5 660.4,440.5 659.5,438.0 C 658.6,435.5 658.6,435.5 657.6,433.0 C 656.6,430.5 656.6,430.5 655.4,428.0 C 654.3,425.5 654.3,425.5 653.1,423.0 C 651.8,420.5 651.8,420.5 650.4,418.0 C 649.0,415.5 649.0,415.5 647.5,413.0 C 646.0,410.5 646.0,410.5 644.3,408.1 C 642.6,405.6 642.6,405.6 640.8,403.2 C 639.0,400.7 639.0,400.7 637.1,398.4 C 635.2,396.0 635.2,396.0 633.1,393.7 C 631.0,391.5 631.0,391.5 628.9,389.3 C 626.7,387.1 626.7,387.1 624.4,385.0 C 622.1,382.9 622.1,382.9 619.7,381.0 C 617.3,379.0 617.3,379.0 614.9,377.2 C 612.5,375.4 612.4,375.4 610.0,373.7 C 607.5,372.1 607.5,372.1 605.0,370.6 C 602.5,369.1 602.5,369.1 600.0,367.7 C 597.5,366.4 597.5,366.4 595.0,365.2 C 592.5,364.0 592.5,364.0 590.0,362.9 C 587.5,361.9 587.5,361.9 585.0,361.0 C 582.5,360.1 582.5,360.1 580.0,359.3 C 577.5,358.5 577.5,358.5 575.0,357.8 C 572.5,357.2 572.5,357.2 570.0,356.7 C 567.5,356.2 567.5,356.2 565.0,355.8 C 562.5,355.4 562.5,355.4 560.0,355.1 C 557.5,354.8 557.5,354.8 555.0,354.6 C 552.5,354.4 552.5,354.4 550.0,354.3 C 547.5,354.2 547.5,354.2 545.0,354.1 C 542.5,354.1 542.5,354.1 540.0,354.0 C 537.5,354.0 537.5,354.0 535.0,354.0 C 532.5,354.0 532.5,354.0 530.0,354.0 C 527.5,354.0 527.5,354.0 525.0,354.0 C 522.5,354.0 522.5,354.0 520.0,354.0 C 517.5,354.0 517.5,354.0 515.0,354.0 C 512.5,354.0 512.5,354.0 510.0,354.0 C 507.5,354.0 507.5,354.0 505.0,354.0 C 502.5,354.0 502.5,354.0 500.0,354.0 C 497.5,354.0 497.5,354.0 495.0,354.0 C 492.5,354.0 492.5,354.0 490.0,354.0 C 487.5,354.0 487.5,354.0 485.0,354.0 C 482.5,354.0 482.5,354.0 480.0,354.0 C 477.5,354.0 477.5,354.0 475.0,354.0 C 472.5,354.0 472.5,354.0 470.0,354.0 C 467.5,354.0 467.5,354.0 465.0,354.0 C 462.5,354.0 462.5,354.0 460.0,354.0 C 457.5,354.0 457.5,354.0 455.0,354.0 C 452.5,354.0 452.5,354.0 450.0,354.0 C 447.5,354.0 447.5,354.0 445.0,354.0 C 442.5,354.0 442.5,354.0 440.0,354.0 C 437.5,354.0 437.5,354.0 435.0,354.0 C 432.5,354.0 432.5,354.0 430.0,354.0 C 427.5,354.0 427.5,354.0 425.0,354.0 C 422.5,354.0 422.5,354.0 420.0,354.0 C 417.5,354.0 417.5,354.0 415.0,354.0 C 412.5,354.0 412.5,354.0 410.0,354.0 C 407.5,354.0 407.5,354.0 405.0,354.1 C 402.5,354.1 402.5,354.1 400.0,354.3 C 397.5,354.4 397.5,354.4 395.0,354.7 C 392.6,355.0 391.9,355.2 390.2,355.6 C 388.5,355.9 389.9,355.5 388.2,356.1 Z M 440.2,418.3 C 439.3,419.6 439.0,419.9 438.3,421.8 C 437.6,423.8 437.7,423.9 437.4,426.2 C 437.1,428.5 437.2,428.6 437.1,431.0 C 437.0,433.5 437.0,433.5 437.0,436.0 C 437.0,438.5 437.0,438.5 437.0,441.0 C 437.0,443.5 437.0,443.5 437.0,446.0 C 437.0,448.5 437.0,448.5 437.0,451.0 C 437.0,453.5 437.0,453.5 437.0,456.0 C 437.0,458.5 437.0,458.5 437.0,461.0 C 437.0,463.5 437.0,463.5 437.0,466.0 C 437.0,468.5 437.0,468.5 437.0,471.0 C 437.0,473.5 437.0,473.5 437.0,476.0 C 437.0,478.5 437.0,478.5 437.0,481.0 C 437.0,483.5 437.0,483.5 437.0,486.0 C 437.0,488.5 437.0,488.5 437.0,491.0 C 437.0,493.5 437.0,493.5 437.0,496.0 C 437.0,498.5 437.0,498.5 437.0,501.0 C 437.0,503.5 437.0,503.5 437.0,506.0 C 436.9,508.4 437.0,508.5 436.9,510.9 C 436.7,513.2 436.8,513.4 436.5,515.5 C 436.1,517.5 436.2,517.7 435.4,519.2 C 434.6,520.8 434.7,520.8 433.3,521.6 C 431.9,522.5 431.9,522.3 430.0,522.5 C 428.1,522.7 427.9,522.5 425.7,522.5 C 423.4,522.4 423.4,522.3 420.9,522.4 C 418.5,522.5 418.5,522.4 416.0,522.9 C 413.5,523.5 413.5,523.5 411.1,524.5 C 408.7,525.6 408.6,525.7 406.4,527.2 C 404.1,528.8 404.0,528.9 402.1,530.9 C 400.2,532.9 400.1,533.0 398.6,535.3 C 397.1,537.6 397.1,537.6 396.1,540.1 C 395.2,542.5 395.2,542.5 394.8,545.0 C 394.4,547.5 394.3,547.5 394.5,550.0 C 394.7,552.5 394.7,552.5 395.4,555.0 C 396.1,557.4 396.2,557.5 397.4,559.8 C 398.7,562.1 398.8,562.2 400.6,564.3 C 402.3,566.4 402.4,566.5 404.6,568.2 C 406.7,569.9 406.8,569.9 409.2,571.1 C 411.5,572.3 411.6,572.3 414.0,573.0 C 416.5,573.7 416.5,573.7 419.0,573.8 C 421.5,573.9 421.5,573.9 424.0,573.5 C 426.5,573.0 426.5,573.0 428.9,572.1 C 431.3,571.1 431.4,571.0 433.7,569.5 C 436.0,568.0 436.0,567.9 438.1,566.1 C 440.2,564.2 440.1,564.1 442.0,562.2 C 443.9,560.3 443.8,560.1 445.7,558.5 C 447.5,556.9 447.4,556.8 449.4,555.7 C 451.4,554.6 451.4,554.6 453.6,554.0 C 455.8,553.4 455.8,553.6 458.2,553.3 C 460.5,553.1 460.6,553.1 463.0,553.1 C 465.5,553.0 465.5,553.0 468.0,553.0 C 470.5,553.0 470.5,553.0 473.0,553.0 C 475.5,553.0 475.5,553.0 478.0,553.0 C 480.5,553.0 480.5,553.0 483.0,553.0 C 485.5,553.0 485.5,553.0 488.0,553.0 C 490.5,553.0 490.5,553.0 493.0,553.0 C 495.5,553.0 495.5,553.0 498.0,553.0 C 500.5,553.0 500.5,553.0 503.0,553.0 C 505.5,553.0 505.5,553.0 508.0,553.0 C 510.5,553.0 510.5,553.0 513.0,553.0 C 515.5,553.0 515.5,553.0 518.0,553.0 C 520.5,553.0 520.5,553.0 523.0,553.0 C 525.5,553.0 525.5,553.0 528.0,553.0 C 530.5,553.0 530.5,553.0 533.0,553.0 C 535.5,552.9 535.5,553.0 538.0,552.9 C 540.5,552.8 540.5,552.8 543.0,552.6 C 545.5,552.4 545.5,552.4 548.0,552.0 C 550.5,551.6 550.5,551.6 553.0,550.9 C 555.5,550.2 555.5,550.2 558.0,549.3 C 560.5,548.3 560.5,548.3 563.0,547.0 C 565.5,545.8 565.5,545.8 568.0,544.2 C 570.4,542.6 570.4,542.6 572.8,540.6 C 575.2,538.7 575.2,538.7 577.5,536.5 C 579.7,534.3 579.7,534.2 581.7,531.8 C 583.7,529.5 583.7,529.4 585.4,527.0 C 587.1,524.5 587.1,524.5 588.5,522.0 C 589.9,519.5 589.9,519.5 591.1,517.0 C 592.2,514.5 592.2,514.5 593.1,512.0 C 594.0,509.5 594.0,509.5 594.7,507.0 C 595.5,504.5 595.5,504.5 596.0,502.0 C 596.6,499.5 596.6,499.5 596.9,497.0 C 597.3,494.5 597.3,494.5 597.5,492.0 C 597.7,489.5 597.7,489.5 597.8,487.0 C 597.9,484.5 597.9,484.5 597.9,482.0 C 597.8,479.5 597.8,479.5 597.7,477.0 C 597.5,474.5 597.6,474.5 597.3,472.0 C 597.0,469.5 597.0,469.5 596.5,467.0 C 596.0,464.5 596.1,464.5 595.4,462.0 C 594.7,459.5 594.8,459.5 593.9,457.0 C 593.1,454.5 593.1,454.5 592.0,452.0 C 590.9,449.5 590.9,449.5 589.6,447.0 C 588.3,444.5 588.3,444.5 586.7,442.0 C 585.1,439.6 585.1,439.5 583.2,437.2 C 581.4,434.8 581.3,434.7 579.2,432.5 C 577.1,430.3 577.0,430.2 574.7,428.2 C 572.4,426.2 572.3,426.2 569.9,424.5 C 567.5,422.8 567.5,422.8 565.0,421.4 C 562.5,420.0 562.5,420.0 560.0,418.9 C 557.5,417.8 557.5,417.9 555.0,417.0 C 552.5,416.2 552.5,416.2 550.0,415.7 C 547.5,415.1 547.5,415.1 545.0,414.8 C 542.5,414.5 542.5,414.5 540.0,414.3 C 537.5,414.1 537.5,414.2 535.0,414.1 C 532.5,414.0 532.5,414.0 530.0,414.0 C 527.5,414.0 527.5,414.0 525.0,414.0 C 522.5,414.0 522.5,414.0 520.0,414.0 C 517.5,414.0 517.5,414.0 515.0,414.0 C 512.5,414.0 512.5,414.0 510.0,414.0 C 507.5,414.0 507.5,414.0 505.0,414.0 C 502.5,414.0 502.5,414.0 500.0,414.0 C 497.5,414.0 497.5,414.0 495.0,414.0 C 492.5,414.0 492.5,414.0 490.0,414.0 C 487.5,414.0 487.5,414.0 485.0,414.0 C 482.5,414.0 482.5,414.0 480.0,414.0 C 477.5,414.0 477.5,414.0 475.0,414.0 C 472.5,414.0 472.5,414.0 470.0,414.0 C 467.5,414.0 467.5,414.0 465.0,414.0 C 462.5,414.0 462.5,414.0 460.0,414.0 C 457.5,414.0 457.5,414.0 455.0,414.1 C 452.6,414.1 452.5,414.1 450.2,414.3 C 447.8,414.6 447.7,414.4 445.7,415.0 C 443.6,415.6 443.3,415.9 441.9,416.7 C 440.5,417.5 441.1,417.0 440.2,418.3 Z" fill="#FFFFFF" fill-rule="evenodd"/><circle cx="420.30" cy="548.40" r="26.10" fill="#E96C00"/></g></g>
  <g transform="translate(387.290,341.500) scale(0.30506,-0.30506)"><path d="M370.0 252C516.0 252 612.0 351 612.0 492C612.0 635 517.0 731 370.0 731H81.0V0H209.0V252ZM345.0 617C430.0 617 478.0 573 478.0 493C478.0 413 431.0 366 343.0 366H209.0V617ZM1387.0 366C1387.0 589 1241.0 744 1032.0 744C823.0 744 678.0 588 678.0 366C678.0 143 822.0 -12 1031.0 -12C1241.0 -12 1387.0 144 1387.0 366ZM1252.0 366C1252.0 212 1166.0 111 1032.0 111C898.0 111 812.0 210 812.0 366C812.0 522 898.0 621 1032.0 621C1166.0 621 1252.0 522 1252.0 366ZM1630.0 0V262C1630.0 353 1629.0 422 1622.0 466L1807.0 0H1925.0L2111.0 467C2104.0 415 2104.0 372 2104.0 225V0H2228.0V731H2102.0L1866.0 149L1630.0 731H1506.0V0ZM2514.0 0V262C2514.0 353 2513.0 422 2506.0 466L2691.0 0H2809.0L2995.0 467C2988.0 415 2988.0 372 2988.0 225V0H3112.0V731H2986.0L2750.0 149L2514.0 731H2390.0V0ZM3728.0 0V118H3402.0V312H3694.0V425H3402.0V613H3728.0V731H3274.0V0ZM3995.0 0V273H4152.0L4276.0 0H4416.0L4277.0 300C4363.0 335 4409.0 405 4409.0 503C4409.0 647 4312.0 731 4146.0 731H3867.0V0ZM3995.0 617H4146.0C4227.0 617 4275.0 576 4275.0 503C4275.0 429 4227.0 386 4146.0 386H3995.0ZM5277.0 0H5419.0L5300.0 134C5337.0 192 5357.0 265 5357.0 350H5238.0C5238.0 302 5231.0 260 5218.0 225L5071.0 390C5162.0 451 5201.0 509 5201.0 582C5201.0 677 5127.0 743 5020.0 743C4912.0 743 4833.0 673 4833.0 576C4833.0 521 4855.0 476 4912.0 410C4800.0 356 4742.0 283 4742.0 194C4742.0 71 4849.0 -13 5008.0 -13C5096.0 -13 5170.0 11 5228.0 55ZM4949.0 577C4949.0 620 4976.0 646 5020.0 646C5062.0 646 5088.0 621 5088.0 578C5088.0 528 5063.0 487 5012.0 457C4965.0 511 4949.0 541 4949.0 577ZM4871.0 206C4871.0 263 4902.0 305 4971.0 344L5157.0 135C5122.0 107 5077.0 92 5022.0 92C4928.0 92 4871.0 135 4871.0 206ZM5806.0 0 5865.0 169H6138.0L6197.0 0H6332.0L6068.0 731H5937.0L5673.0 0ZM5986.0 513C5993.0 533 5999.0 555 6002.0 569C6004.0 554 6011.0 532 6017.0 513L6101.0 277H5903.0ZM6708.0 623C6796.0 623 6870.0 583 6893.0 497H7028.0C7007.0 646 6878.0 743 6711.0 743C6491.0 743 6346.0 585 6346.0 363C6346.0 138 6489.0 -11 6694.0 -11C6793.0 -11 6876.0 28 6916.0 84L6924.0 0H7032.0V411H6692.0V298H6913.0V295C6913.0 178 6836.0 108 6709.0 108C6574.0 108 6480.0 197 6480.0 360C6480.0 518 6563.0 623 6708.0 623ZM7654.0 0V118H7328.0V312H7620.0V425H7328.0V613H7654.0V731H7200.0V0ZM7919.0 0V518L8263.0 0H8389.0V731H8263.0V213L7920.0 731H7793.0V0ZM8487.0 613H8701.0V0H8829.0V613H9043.0V731H8487.0ZM9099.0 527C9099.0 415 9164.0 344 9288.0 317L9404.0 291C9464.0 278 9489.0 249 9489.0 200C9489.0 139 9435.0 102 9350.0 102C9268.0 102 9218.0 139 9217.0 201H9089.0C9092.0 70 9194.0 -13 9350.0 -13C9511.0 -13 9617.0 75 9617.0 211C9617.0 320 9556.0 384 9431.0 411L9316.0 436C9255.0 450 9227.0 479 9227.0 531C9227.0 592 9278.0 630 9357.0 630C9429.0 630 9474.0 593 9477.0 530H9605.0C9601.0 662 9507.0 744 9359.0 744C9205.0 744 9099.0 655 9099.0 527Z" fill="#FFFFFF"/></g>
</svg>
